<?xml version="1.0" encoding="UTF-8"?>
<svg id="Layer_1" data-name="Layer 1" xmlns="http://www.w3.org/2000/svg" viewBox="0 0 256 233.55">
  <path d="M256,81.8l-24.3-20.07-70.25-16.54-23.05-28.38L90.94,0,43.48,16.81,0,62.09l15.29-3.12L4.08,139.61l20.22-13.48,71.94,107.42,11.08-16.54-21.62-32.29,10.08-15.06,21.62,32.29,10.08-15.06-21.62-32.29,10.08-15.06,21.62,32.29,10.08-15.06-21.62-32.29,10.08-15.06,21.62,32.29,10.08-15.06-21.62-32.29,109.81-12.57ZM26.66,107.16l5.72-55.35,4.71,48.68,33.36,17.93-43.78-11.26ZM118.84,59.38c-5.31,0-9.62-4.31-9.62-9.62,0-2.27,.82-4.34,2.14-5.98l16.8,3.73c.18,.73,.29,1.48,.29,2.26,0,5.31-4.31,9.62-9.62,9.62Zm51.2,6.96l2.28-9.04,55.54,12.32-82.09,8.66,24.26-11.94Z"/>
</svg>