<?xml version="1.0" encoding="UTF-8"?>
<svg id="Layer_1" data-name="Layer 1" xmlns="http://www.w3.org/2000/svg" viewBox="0 0 256 231.36">
  <defs>
    <style>
      .cls-1 {
        fill: #231f20;
      }
    </style>
  </defs>
  <g>
    <path class="cls-1" d="M27.98,176.81c3.42,5.01,2.87,9.59-1.97,12.88-4.83,3.3-9.29,2.15-12.71-2.87l-11.11-16.29c-3.42-5.01-2.87-9.58,1.97-12.88,4.83-3.3,9.29-2.14,12.71,2.87l2.08,3.04-4.65,3.17-2.29-3.36c-1.53-2.24-3.09-2.42-4.66-1.35s-1.97,2.59-.44,4.83l11.54,16.92c1.53,2.24,3.06,2.37,4.63,1.31s2-2.55,.48-4.79l-3.05-4.47,4.65-3.17,2.84,4.16Z"/>
    <path class="cls-1" d="M21.56,145.77c4.83-3.3,9.43-2.23,12.85,2.78l11.11,16.29c3.42,5.01,2.73,9.68-2.1,12.98-4.83,3.3-9.43,2.24-12.85-2.78l-11.11-16.29c-3.42-5.01-2.73-9.68,2.1-12.98Zm18.81,27.57c1.57-1.07,1.97-2.59,.44-4.83l-11.54-16.92c-1.53-2.24-3.09-2.42-4.66-1.35s-1.97,2.59-.44,4.83l11.54,16.92c1.53,2.24,3.09,2.42,4.66,1.35Z"/>
    <path class="cls-1" d="M61.05,159.62l-3.36-4.93c-1.98-2.91-3.7-3.31-5.94-1.79l-1.7,1.16,8.7,12.76-4.92,3.36-21.37-31.33,7.43-5.07c5.1-3.48,8.91-2.61,12.21,2.23l1.68,2.46c2.2,3.22,2.6,6.03,1.11,8.56,3.16-.65,5.59,1.17,7.82,4.44l3.3,4.83c1.04,1.52,1.85,2.61,3.13,3.44l-5.01,3.42c-.82-.62-1.33-.99-3.07-3.54Zm-14.05-10.02l1.92-1.31c1.83-1.25,2.4-2.82,.69-5.33l-2.11-3.09c-1.53-2.24-2.96-2.7-4.7-1.51l-2.37,1.62,6.56,9.62Z"/>
    <path class="cls-1" d="M61.56,119.01l4.52-3.08,16.54,34.63-7.34,5.01-26.2-28.03,4.97-3.39,21.19,22.99-13.67-28.12Z"/>
    <path class="cls-1" d="M73.28,111.01l21.37,31.33-4.92,3.36-21.37-31.33,4.92-3.36Z"/>
    <path class="cls-1" d="M84.65,103.26c4.92-3.36,9.2-2.28,12.62,2.74l10.81,15.84c3.42,5.01,2.86,9.39-2.06,12.75l-7.79,5.31-21.37-31.33,7.79-5.31Zm15.45,28.81l2.78-1.89c1.57-1.07,1.96-2.51,.43-4.75l-11.11-16.29c-1.53-2.24-3.01-2.4-4.58-1.33l-2.77,1.89,15.26,22.38Z"/>
    <path class="cls-1" d="M30.69,194.72c4.92-3.36,9.2-2.28,12.62,2.74l10.81,15.84c3.42,5.01,2.86,9.39-2.06,12.75l-7.79,5.31-21.37-31.33,7.79-5.31Zm15.45,28.81l2.78-1.89c1.57-1.07,1.96-2.51,.43-4.75l-11.11-16.29c-1.53-2.24-3.01-2.4-4.58-1.33l-2.78,1.89,15.26,22.38Z"/>
    <path class="cls-1" d="M61.85,192.81l3.05,4.48-6.76,4.61,6.26,9.17,8.5-5.8,3.05,4.48-13.43,9.16-21.37-31.33,13.43-9.16,3.05,4.48-8.5,5.8,5.95,8.72,6.76-4.61Z"/>
    <path class="cls-1" d="M64.02,171.47c4.79-3.27,9.2-2.08,12.62,2.93l.67,.98-4.65,3.18-.89-1.3c-1.53-2.24-3-2.48-4.57-1.41s-1.88,2.53-.36,4.77c4.4,6.44,14.84,1.09,20.95,10.04,3.42,5.01,2.87,9.59-1.97,12.89-4.83,3.3-9.29,2.14-12.71-2.87l-1.31-1.92,4.65-3.17,1.53,2.24c1.53,2.24,3.06,2.37,4.63,1.3s2-2.54,.48-4.78c-4.4-6.45-14.84-1.09-20.95-10.04-3.42-5.01-2.91-9.56,1.88-12.82Z"/>
    <path class="cls-1" d="M79.3,161.56l21.37,31.33-4.92,3.36-21.37-31.33,4.92-3.36Z"/>
    <path class="cls-1" d="M106.62,163.26l6.78,9.94c3.42,5.01,2.87,9.58-1.97,12.88-4.83,3.3-9.3,2.14-12.71-2.87l-11.11-16.29c-3.42-5.01-2.87-9.59,1.97-12.88,4.83-3.3,9.29-2.14,12.71,2.87l2.07,3.04-4.65,3.17-2.29-3.36c-1.53-2.24-3.09-2.42-4.66-1.35-1.57,1.07-1.97,2.59-.45,4.83l11.54,16.92c1.53,2.24,3.06,2.37,4.63,1.3,1.57-1.07,2-2.55,.47-4.78l-3.94-5.77-2.24,1.53-3.05-4.48,6.89-4.7Z"/>
    <path class="cls-1" d="M126.09,175.55l-4.43,3.02-21.37-31.33,6.18-4.21,17.85,15.3-12.79-18.75,4.39-2.99,21.37,31.33-5.06,3.45-21.61-18.51,15.48,22.69Z"/>
  </g>
  <path d="M256,57.21l-17-14.04-49.13-11.57-16.12-19.85L140.56,0l-33.2,11.76-30.41,31.67,10.7-2.18-7.85,56.39,14.14-9.43,50.31,75.13,7.75-11.57-15.12-22.58,7.05-10.53,15.12,22.58,7.05-10.53-15.12-22.58,7.05-10.53,15.12,22.58,7.05-10.53-15.12-22.58,7.05-10.53,15.12,22.59,7.05-10.53-15.12-22.59,76.81-8.79Zm-160.4,17.73l4-38.71,3.29,34.05,23.33,12.54-30.62-7.87Zm64.47-33.41c-3.72,0-6.73-3.01-6.73-6.73,0-1.59,.58-3.03,1.5-4.19l11.75,2.61c.12,.51,.21,1.03,.21,1.58,0,3.72-3.01,6.73-6.73,6.73Zm35.81,4.87l1.6-6.33,38.85,8.62-57.41,6.06,16.97-8.35Z"/>
</svg>
